
<svg width="90" height="73" viewBox="0 0 90 73" fill="none" xmlns="http://www.w3.org/2000/svg">
<path d="M48.7705 15H63.7705L73 58H58L48.7705 15Z" fill="#127040"/>
<path fill-rule="evenodd" clip-rule="evenodd" d="M86.7356 17.9895C88.3738 13.0751 84.7159 8 79.5356 8V8C76.2689 8 73.3687 10.0904 72.3356 13.1895L58.3953 55.0105C56.7571 59.925 60.415 65 65.5953 65V65C68.862 65 71.7623 62.9096 72.7953 59.8105L86.7356 17.9895Z" fill="#24BB6F"/>
<path fill-rule="evenodd" clip-rule="evenodd" d="M63.4407 17.9895C65.0788 13.0751 61.4209 8 56.2407 8V8C52.9739 8 50.0737 10.0904 49.0407 13.1895L35.1003 55.0105C33.4622 59.925 37.1201 65 42.3003 65V65C45.567 65 48.4673 62.9096 49.5003 59.8105L63.4407 17.9895Z" fill="#24BB6F"/>
<path fill-rule="evenodd" clip-rule="evenodd" d="M26.0407 13.1895C27.0737 10.0904 29.9739 8 33.2407 8V8C38.4209 8 42.0788 13.0751 40.4407 17.9895L27.6165 56.4619C27.0746 58.0876 26.8037 58.9005 26.4464 59.5917C24.9831 62.4227 22.2582 64.3867 19.1098 64.8796C18.341 65 17.4842 65 15.7705 65V65H8.7705V65C4.83482 65 2.05575 61.1443 3.30032 57.4105L4.50559 53.7947C5.26098 51.5286 7.38174 50 9.7705 50V50C12.1593 50 14.28 48.4714 15.0354 46.2053L26.0407 13.1895Z" fill="#24BB6F"/>
</svg>
